<?xml version="1.0" encoding="utf-8"?>
<!-- Generator: Adobe Illustrator 19.2.1, SVG Export Plug-In . SVG Version: 6.00 Build 0)  -->
<svg version="1.1" id="Layer_1" xmlns="http://www.w3.org/2000/svg" xmlns:xlink="http://www.w3.org/1999/xlink" x="0px" y="0px"
	 viewBox="0 0 259.8 63" style="enable-background:new 0 0 259.8 63;" xml:space="preserve">
<style type="text/css">
	.st0{display:none;}
	.st1{display:inline;fill:#00FFFF;}
	.st2{enable-background:new    ;}
	.st4{fill:#FFFFFF;}
</style>

<g id="Layer_1_1_">
	
	<g>
		<polygon class="st4" points="28.6,33.1 34.4,33.1 31.5,24 		"/>
		<path class="st4" d="M31.5,5.6C17.2,5.6,5.6,17.2,5.6,31.5s11.6,25.9,25.9,25.9s25.9-11.6,25.9-25.9S45.8,5.6,31.5,5.6z
			 M37.5,42.9l-1-3.3h-9.9l-1,3.3h-8.5l9.5-25.8h9.8l9.5,25.8H37.5z"/>
	</g>
	<polygon class="st4" points="31.4,20.9 33.9,25.8 39.3,26.6 35.4,30.5 36.3,35.9 31.4,33.4 26.5,35.9 27.4,30.5 23.5,26.6 29,25.8 
			"/>
</g>
</svg>
